<svg width="64" height="53" viewBox="0 0 64 53" fill="none" xmlns="http://www.w3.org/2000/svg">
<path d="M0 53V44.7556C0 43.1361 0.414003 41.6148 1.24201 40.1917C2.07002 38.7685 3.21461 37.6889 4.6758 36.9528C7.15982 35.6769 9.96043 34.5972 13.0776 33.7139C16.1948 32.8306 19.6286 32.3889 23.379 32.3889C27.1294 32.3889 30.5632 32.8306 33.6804 33.7139C36.7976 34.5972 39.5982 35.6769 42.0822 36.9528C43.5434 37.6889 44.688 38.7685 45.516 40.1917C46.344 41.6148 46.758 43.1361 46.758 44.7556V53H0ZM5.84475 47.1111H40.9132V44.7556C40.9132 44.2157 40.7793 43.725 40.5114 43.2833C40.2435 42.8417 39.8904 42.4981 39.4521 42.2528C37.6986 41.3694 35.446 40.4861 32.6941 39.6028C29.9422 38.7194 26.8371 38.2778 23.379 38.2778C19.9209 38.2778 16.8158 38.7194 14.0639 39.6028C11.312 40.4861 9.05936 41.3694 7.30594 42.2528C6.86758 42.4981 6.51446 42.8417 6.24657 43.2833C5.97869 43.725 5.84475 44.2157 5.84475 44.7556V47.1111ZM23.379 29.4444C20.1644 29.4444 17.4125 28.2912 15.1233 25.9847C12.8341 23.6782 11.6895 20.9056 11.6895 17.6667H10.9589C10.5205 17.6667 10.1674 17.5317 9.89954 17.2618C9.63166 16.9919 9.49772 16.6361 9.49772 16.1944C9.49772 15.7528 9.63166 15.397 9.89954 15.1271C10.1674 14.8572 10.5205 14.7222 10.9589 14.7222H11.6895C11.6895 12.5139 12.2253 10.5264 13.2968 8.75972C14.3683 6.99306 15.7808 5.59444 17.5342 4.56389V7.36111C17.5342 7.80278 17.6682 8.15856 17.9361 8.42847C18.204 8.69838 18.5571 8.83333 18.9954 8.83333C19.4338 8.83333 19.7869 8.69838 20.0548 8.42847C20.3227 8.15856 20.4566 7.80278 20.4566 7.36111V3.38611C20.895 3.23889 21.3577 3.12847 21.8447 3.05486C22.3318 2.98125 22.8432 2.94444 23.379 2.94444C23.9148 2.94444 24.4262 2.98125 24.9132 3.05486C25.4003 3.12847 25.863 3.23889 26.3014 3.38611V7.36111C26.3014 7.80278 26.4353 8.15856 26.7032 8.42847C26.9711 8.69838 27.3242 8.83333 27.7626 8.83333C28.2009 8.83333 28.554 8.69838 28.8219 8.42847C29.0898 8.15856 29.2237 7.80278 29.2237 7.36111V4.56389C30.9772 5.59444 32.3896 6.99306 33.4612 8.75972C34.5327 10.5264 35.0685 12.5139 35.0685 14.7222H35.7991C36.2374 14.7222 36.5906 14.8572 36.8584 15.1271C37.1263 15.397 37.2603 15.7528 37.2603 16.1944C37.2603 16.6361 37.1263 16.9919 36.8584 17.2618C36.5906 17.5317 36.2374 17.6667 35.7991 17.6667H35.0685C35.0685 20.9056 33.9239 23.6782 31.6347 25.9847C29.3455 28.2912 26.5936 29.4444 23.379 29.4444ZM23.379 23.5556C24.9863 23.5556 26.3623 22.9789 27.5068 21.8257C28.6514 20.6725 29.2237 19.2861 29.2237 17.6667H17.5342C17.5342 19.2861 18.1065 20.6725 19.2511 21.8257C20.3957 22.9789 21.7717 23.5556 23.379 23.5556ZM45.2968 35.3333L44.8584 33.125C44.5662 33.0269 44.2861 32.9164 44.0183 32.7938C43.7504 32.6711 43.4947 32.487 43.2511 32.2417L41.2055 32.9778L39.7443 30.3278L41.3516 28.8556V27.0889L39.7443 25.6167L41.2055 22.9667L43.2511 23.7028C43.446 23.5065 43.6895 23.3347 43.9817 23.1875C44.274 23.0403 44.5662 22.9176 44.8584 22.8194L45.2968 20.6111H48.2192L48.6575 22.8194C48.9498 22.9176 49.242 23.0403 49.5342 23.1875C49.8265 23.3347 50.07 23.5065 50.2648 23.7028L52.3105 22.9667L53.7717 25.6167L52.1644 27.0889V28.8556L53.7717 30.3278L52.3105 32.9778L50.2648 32.2417C50.0213 32.487 49.7656 32.6711 49.4977 32.7938C49.2298 32.9164 48.9498 33.0269 48.6575 33.125L48.2192 35.3333H45.2968ZM46.758 30.1806C47.3425 30.1806 47.8539 29.9597 48.2922 29.5181C48.7306 29.0764 48.9498 28.5611 48.9498 27.9722C48.9498 27.3833 48.7306 26.8681 48.2922 26.4264C47.8539 25.9847 47.3425 25.7639 46.758 25.7639C46.1735 25.7639 45.6621 25.9847 45.2237 26.4264C44.7854 26.8681 44.5662 27.3833 44.5662 27.9722C44.5662 28.5611 44.7854 29.0764 45.2237 29.5181C45.6621 29.9597 46.1735 30.1806 46.758 30.1806ZM52.0183 20.6111L51.4338 17.5194C50.9954 17.3722 50.5936 17.1882 50.2283 16.9674C49.863 16.7465 49.5342 16.4889 49.242 16.1944L46.1735 17.225L44.1279 13.6917L46.6119 11.4833C46.5145 11.238 46.4658 11.0417 46.4658 10.8944V9.71667C46.4658 9.56944 46.5145 9.37315 46.6119 9.12778L44.1279 6.91944L46.1735 3.38611L49.242 4.41667C49.5342 4.12222 49.863 3.86458 50.2283 3.64375C50.5936 3.42292 50.9954 3.23889 51.4338 3.09167L52.0183 0H56.1096L56.6941 3.09167C57.1324 3.23889 57.5342 3.42292 57.8995 3.64375C58.2648 3.86458 58.5936 4.12222 58.8858 4.41667L61.9543 3.38611L64 6.91944L61.516 9.12778C61.6134 9.37315 61.6621 9.56944 61.6621 9.71667V10.8944C61.6621 11.0417 61.6134 11.238 61.516 11.4833L64 13.6917L61.9543 17.225L58.8858 16.1944C58.5936 16.4889 58.2648 16.7465 57.8995 16.9674C57.5342 17.1882 57.1324 17.3722 56.6941 17.5194L56.1096 20.6111H52.0183ZM54.0639 13.9861C55.0868 13.9861 55.9513 13.6303 56.6575 12.9187C57.3638 12.2072 57.7169 11.3361 57.7169 10.3056C57.7169 9.275 57.3638 8.40394 56.6575 7.69236C55.9513 6.98079 55.0868 6.625 54.0639 6.625C53.0411 6.625 52.1766 6.98079 51.4703 7.69236C50.7641 8.40394 50.411 9.275 50.411 10.3056C50.411 11.3361 50.7641 12.2072 51.4703 12.9187C52.1766 13.6303 53.0411 13.9861 54.0639 13.9861Z" fill="white"/>
</svg>
