<svg width="65" height="59" viewBox="0 0 65 59" fill="none" xmlns="http://www.w3.org/2000/svg">
<path d="M32.1456 53.1C32.3425 53.1 32.5394 53.0508 32.7363 52.9525C32.9331 52.8542 33.0808 52.7558 33.1792 52.6575L57.3955 28.4675C57.9861 27.8775 58.4168 27.2137 58.6875 26.4762C58.9582 25.7387 59.0936 25.0012 59.0936 24.2637C59.0936 23.4771 58.9582 22.7273 58.6875 22.0144C58.4168 21.3015 57.9861 20.6746 57.3955 20.1337L44.8444 7.59625C44.303 7.00625 43.6754 6.57604 42.9617 6.30562C42.248 6.03521 41.4974 5.9 40.7099 5.9C39.9716 5.9 39.2333 6.03521 38.495 6.30562C37.7567 6.57604 37.0922 7.00625 36.5016 7.59625L35.6895 8.4075L41.1529 13.9387C41.8912 14.6271 42.4326 15.4137 42.7771 16.2987C43.1217 17.1838 43.294 18.1179 43.294 19.1012C43.294 21.1662 42.5926 22.8994 41.1898 24.3006C39.787 25.7019 38.052 26.4025 35.9848 26.4025C35.0004 26.4025 34.0529 26.2304 33.1423 25.8862C32.2318 25.5421 31.4319 25.0258 30.7428 24.3375L25.2056 18.88L12.2853 31.7862C12.1377 31.9337 12.0269 32.0935 11.9531 32.2656C11.8793 32.4377 11.8423 32.6221 11.8423 32.8187C11.8423 33.2121 11.99 33.5685 12.2853 33.8881C12.5806 34.2077 12.9252 34.3675 13.3189 34.3675C13.5158 34.3675 13.7127 34.3183 13.9096 34.22C14.1065 34.1217 14.2541 34.0233 14.3526 33.925L24.3935 23.895L28.5279 28.025L18.5609 38.055C18.4132 38.2025 18.3025 38.3623 18.2286 38.5344C18.1548 38.7065 18.1179 38.8908 18.1179 39.0875C18.1179 39.4808 18.2656 39.825 18.5609 40.12C18.8562 40.415 19.2007 40.5625 19.5945 40.5625C19.7914 40.5625 19.9883 40.5133 20.1851 40.415C20.382 40.3167 20.5297 40.2183 20.6281 40.12L30.669 30.1637L34.8035 34.2937L24.8364 44.3237C24.6888 44.4221 24.578 44.5696 24.5042 44.7662C24.4304 44.9629 24.3935 45.1596 24.3935 45.3562C24.3935 45.7496 24.5411 46.0937 24.8364 46.3887C25.1318 46.6837 25.4763 46.8312 25.8701 46.8312C26.0669 46.8312 26.2515 46.7944 26.4238 46.7206C26.5961 46.6469 26.756 46.5362 26.9037 46.3887L36.9446 36.4325L41.0791 40.5625L31.0382 50.5925C30.8905 50.74 30.7798 50.8998 30.7059 51.0719C30.6321 51.244 30.5952 51.4283 30.5952 51.625C30.5952 52.0183 30.7551 52.3625 31.0751 52.6575C31.395 52.9525 31.7519 53.1 32.1456 53.1ZM32.0718 59C30.2506 59 28.6387 58.3977 27.2359 57.1931C25.8331 55.9885 25.0087 54.4767 24.7626 52.6575C23.0891 52.4117 21.6864 51.7233 20.5543 50.5925C19.4222 49.4617 18.7332 48.0604 18.4871 46.3887C16.8136 46.1429 15.4231 45.4423 14.3157 44.2869C13.2082 43.1315 12.5314 41.7425 12.2853 40.12C10.415 39.8742 8.88914 39.0629 7.70786 37.6862C6.52658 36.3096 5.93594 34.6871 5.93594 32.8187C5.93594 31.8354 6.12051 30.889 6.48966 29.9794C6.85881 29.0698 7.38793 28.2708 8.07701 27.5825L25.2056 10.5462L34.8773 20.2075C34.9758 20.355 35.1234 20.4656 35.3203 20.5394C35.5172 20.6131 35.7141 20.65 35.9109 20.65C36.3539 20.65 36.7231 20.5148 37.0184 20.2444C37.3137 19.974 37.4614 19.6175 37.4614 19.175C37.4614 18.9783 37.4245 18.7817 37.3506 18.585C37.2768 18.3883 37.1661 18.2408 37.0184 18.1425L26.4607 7.59625C25.9193 7.00625 25.2917 6.57604 24.578 6.30562C23.8643 6.03521 23.1137 5.9 22.3262 5.9C21.5879 5.9 20.8496 6.03521 20.1113 6.30562C19.373 6.57604 18.7085 7.00625 18.1179 7.59625L7.70786 18.0687C7.26488 18.5112 6.89573 19.0275 6.60041 19.6175C6.30509 20.2075 6.10821 20.7975 6.00977 21.3875C5.91133 21.9775 5.91133 22.5798 6.00977 23.1944C6.10821 23.809 6.30509 24.3867 6.60041 24.9275L2.31826 29.205C1.48152 28.0742 0.866273 26.8327 0.472512 25.4806C0.0787521 24.1285 -0.0689081 22.7642 0.029532 21.3875C0.127972 20.0108 0.472512 18.671 1.06315 17.3681C1.65379 16.0652 2.46592 14.8975 3.49955 13.865L13.9096 3.46625C15.0909 2.33542 16.4075 1.475 17.8595 0.885C19.3115 0.295 20.8004 0 22.3262 0C23.852 0 25.3409 0.295 26.7929 0.885C28.2449 1.475 29.537 2.33542 30.669 3.46625L31.4811 4.2775L32.2933 3.46625C33.4746 2.33542 34.7912 1.475 36.2432 0.885C37.6952 0.295 39.1841 0 40.7099 0C42.2357 0 43.7246 0.295 45.1766 0.885C46.6286 1.475 47.9206 2.33542 49.0527 3.46625L61.53 15.93C62.662 17.0608 63.5234 18.3637 64.114 19.8387C64.7047 21.3137 65 22.8133 65 24.3375C65 25.8617 64.7047 27.349 64.114 28.7994C63.5234 30.2498 62.662 31.5404 61.53 32.6712L37.3137 56.7875C36.6246 57.4758 35.8248 58.0167 34.9142 58.41C34.0037 58.8033 33.0562 59 32.0718 59Z" fill="white"/>
</svg>
