<svg width="65" height="44" viewBox="0 0 65 44" fill="none" xmlns="http://www.w3.org/2000/svg">
<path d="M32.5 35.2C36.1932 35.2 39.3324 33.9167 41.9176 31.35C44.5028 28.7833 45.7955 25.6667 45.7955 22C45.7955 18.3333 44.5028 15.2167 41.9176 12.65C39.3324 10.0833 36.1932 8.8 32.5 8.8C28.8068 8.8 25.6676 10.0833 23.0824 12.65C20.4972 15.2167 19.2045 18.3333 19.2045 22C19.2045 25.6667 20.4972 28.7833 23.0824 31.35C25.6676 33.9167 28.8068 35.2 32.5 35.2ZM32.5 29.92C30.2841 29.92 28.4006 29.15 26.8494 27.61C25.2983 26.07 24.5227 24.2 24.5227 22C24.5227 19.8 25.2983 17.93 26.8494 16.39C28.4006 14.85 30.2841 14.08 32.5 14.08C34.7159 14.08 36.5994 14.85 38.1506 16.39C39.7017 17.93 40.4773 19.8 40.4773 22C40.4773 24.2 39.7017 26.07 38.1506 27.61C36.5994 29.15 34.7159 29.92 32.5 29.92ZM32.5 44C25.3106 44 18.7614 42.0078 12.8523 38.0233C6.94318 34.0389 2.65909 28.6978 0 22C2.65909 15.3022 6.94318 9.96111 12.8523 5.97667C18.7614 1.99222 25.3106 0 32.5 0C39.6894 0 46.2386 1.99222 52.1477 5.97667C58.0568 9.96111 62.3409 15.3022 65 22C62.3409 28.6978 58.0568 34.0389 52.1477 38.0233C46.2386 42.0078 39.6894 44 32.5 44ZM32.5 38.1333C38.0644 38.1333 43.1733 36.6789 47.8267 33.77C52.4801 30.8611 56.0379 26.9378 58.5 22C56.0379 17.0622 52.4801 13.1389 47.8267 10.23C43.1733 7.32111 38.0644 5.86667 32.5 5.86667C26.9356 5.86667 21.8267 7.32111 17.1733 10.23C12.5199 13.1389 8.96212 17.0622 6.5 22C8.96212 26.9378 12.5199 30.8611 17.1733 33.77C21.8267 36.6789 26.9356 38.1333 32.5 38.1333Z" fill="white"/>
</svg>
