<svg width="66" height="58" viewBox="0 0 66 58" fill="none" xmlns="http://www.w3.org/2000/svg">
<path d="M60 54.9474V6.10526H6V30.5263H0V6.10526C0 4.42632 0.5875 2.98904 1.7625 1.79342C2.9375 0.597807 4.35 0 6 0H60C61.65 0 63.0625 0.597807 64.2375 1.79342C65.4125 2.98904 66 4.42632 66 6.10526V48.8421C66 50.5211 65.4125 51.9583 64.2375 53.1539C63.0625 54.3496 61.65 54.9474 60 54.9474ZM24 33.5789C20.7 33.5789 17.875 32.3833 15.525 29.9921C13.175 27.6009 12 24.7263 12 21.3684C12 18.0105 13.175 15.136 15.525 12.7447C17.875 10.3535 20.7 9.1579 24 9.1579C27.3 9.1579 30.125 10.3535 32.475 12.7447C34.825 15.136 36 18.0105 36 21.3684C36 24.7263 34.825 27.6009 32.475 29.9921C30.125 32.3833 27.3 33.5789 24 33.5789ZM24 27.4737C25.65 27.4737 27.0625 26.8759 28.2375 25.6803C29.4125 24.4846 30 23.0474 30 21.3684C30 19.6895 29.4125 18.2522 28.2375 17.0566C27.0625 15.861 25.65 15.2632 24 15.2632C22.35 15.2632 20.9375 15.861 19.7625 17.0566C18.5875 18.2522 18 19.6895 18 21.3684C18 23.0474 18.5875 24.4846 19.7625 25.6803C20.9375 26.8759 22.35 27.4737 24 27.4737ZM0 58V49.4526C0 47.7228 0.4375 46.1329 1.3125 44.6829C2.1875 43.2329 3.35 42.1263 4.8 41.3632C7.9 39.786 11.05 38.6031 14.25 37.8145C17.45 37.0259 20.7 36.6316 24 36.6316C27.3 36.6316 30.55 37.0259 33.75 37.8145C36.95 38.6031 40.1 39.786 43.2 41.3632C44.65 42.1263 45.8125 43.2329 46.6875 44.6829C47.5625 46.1329 48 47.7228 48 49.4526V58H0ZM6 51.8947H42V49.4526C42 48.893 41.8625 48.3842 41.5875 47.9263C41.3125 47.4684 40.95 47.1123 40.5 46.8579C37.8 45.4842 35.075 44.4539 32.325 43.7671C29.575 43.0803 26.8 42.7368 24 42.7368C21.2 42.7368 18.425 43.0803 15.675 43.7671C12.925 44.4539 10.2 45.4842 7.5 46.8579C7.05 47.1123 6.6875 47.4684 6.4125 47.9263C6.1375 48.3842 6 48.893 6 49.4526V51.8947Z" fill="white"/>
</svg>
